G04 (created by PCBNEW-RS274X (2012-01-19 BZR 3256)-stable) date mer. 09 mai 2012 21:58:05 CEST*
G01*
G70*
G90*
%MOIN*%
G04 Gerber Fmt 3.4, Leading zero omitted, Abs format*
%FSLAX34Y34*%
G04 APERTURE LIST*
%ADD10C,0.006000*%
%ADD11C,0.012000*%
%ADD12C,0.005000*%
%ADD13C,0.010000*%
G04 APERTURE END LIST*
G54D10*
G54D11*
X46285Y-56724D02*
X46485Y-56343D01*
X46628Y-56724D02*
X46628Y-55924D01*
X46400Y-55924D01*
X46342Y-55962D01*
X46314Y-56000D01*
X46285Y-56076D01*
X46285Y-56190D01*
X46314Y-56267D01*
X46342Y-56305D01*
X46400Y-56343D01*
X46628Y-56343D01*
X45800Y-56686D02*
X45857Y-56724D01*
X45971Y-56724D01*
X46028Y-56686D01*
X46057Y-56610D01*
X46057Y-56305D01*
X46028Y-56229D01*
X45971Y-56190D01*
X45857Y-56190D01*
X45800Y-56229D01*
X45771Y-56305D01*
X45771Y-56381D01*
X46057Y-56457D01*
X45571Y-56190D02*
X45428Y-56724D01*
X45286Y-56190D01*
X45057Y-56724D02*
X45057Y-56190D01*
X45057Y-55924D02*
X45086Y-55962D01*
X45057Y-56000D01*
X45029Y-55962D01*
X45057Y-55924D01*
X45057Y-56000D01*
X44800Y-56686D02*
X44743Y-56724D01*
X44628Y-56724D01*
X44571Y-56686D01*
X44543Y-56610D01*
X44543Y-56571D01*
X44571Y-56495D01*
X44628Y-56457D01*
X44714Y-56457D01*
X44771Y-56419D01*
X44800Y-56343D01*
X44800Y-56305D01*
X44771Y-56229D01*
X44714Y-56190D01*
X44628Y-56190D01*
X44571Y-56229D01*
X44285Y-56724D02*
X44285Y-56190D01*
X44285Y-55924D02*
X44314Y-55962D01*
X44285Y-56000D01*
X44257Y-55962D01*
X44285Y-55924D01*
X44285Y-56000D01*
X43913Y-56724D02*
X43971Y-56686D01*
X43999Y-56648D01*
X44028Y-56571D01*
X44028Y-56343D01*
X43999Y-56267D01*
X43971Y-56229D01*
X43913Y-56190D01*
X43828Y-56190D01*
X43771Y-56229D01*
X43742Y-56267D01*
X43713Y-56343D01*
X43713Y-56571D01*
X43742Y-56648D01*
X43771Y-56686D01*
X43828Y-56724D01*
X43913Y-56724D01*
X43456Y-56190D02*
X43456Y-56724D01*
X43456Y-56267D02*
X43428Y-56229D01*
X43370Y-56190D01*
X43285Y-56190D01*
X43228Y-56229D01*
X43199Y-56305D01*
X43199Y-56724D01*
X42342Y-55924D02*
X42285Y-55924D01*
X42228Y-55962D01*
X42199Y-56000D01*
X42170Y-56076D01*
X42142Y-56229D01*
X42142Y-56419D01*
X42170Y-56571D01*
X42199Y-56648D01*
X42228Y-56686D01*
X42285Y-56724D01*
X42342Y-56724D01*
X42399Y-56686D01*
X42428Y-56648D01*
X42456Y-56571D01*
X42485Y-56419D01*
X42485Y-56229D01*
X42456Y-56076D01*
X42428Y-56000D01*
X42399Y-55962D01*
X42342Y-55924D01*
X54370Y-48624D02*
X54370Y-48090D01*
X54370Y-48243D02*
X54342Y-48167D01*
X54313Y-48129D01*
X54256Y-48090D01*
X54199Y-48090D01*
X53771Y-48586D02*
X53828Y-48624D01*
X53942Y-48624D01*
X53999Y-48586D01*
X54028Y-48510D01*
X54028Y-48205D01*
X53999Y-48129D01*
X53942Y-48090D01*
X53828Y-48090D01*
X53771Y-48129D01*
X53742Y-48205D01*
X53742Y-48281D01*
X54028Y-48357D01*
X53571Y-48090D02*
X53342Y-48090D01*
X53485Y-48624D02*
X53485Y-47938D01*
X53457Y-47862D01*
X53399Y-47824D01*
X53342Y-47824D01*
X53142Y-48548D02*
X53114Y-48586D01*
X53142Y-48624D01*
X53171Y-48586D01*
X53142Y-48548D01*
X53142Y-48624D01*
X53142Y-48129D02*
X53114Y-48167D01*
X53142Y-48205D01*
X53171Y-48167D01*
X53142Y-48129D01*
X53142Y-48205D01*
X52313Y-48624D02*
X52371Y-48586D01*
X52399Y-48510D01*
X52399Y-47824D01*
X52085Y-48624D02*
X52085Y-48090D01*
X52085Y-47824D02*
X52114Y-47862D01*
X52085Y-47900D01*
X52057Y-47862D01*
X52085Y-47824D01*
X52085Y-47900D01*
X51799Y-48090D02*
X51799Y-48624D01*
X51799Y-48167D02*
X51771Y-48129D01*
X51713Y-48090D01*
X51628Y-48090D01*
X51571Y-48129D01*
X51542Y-48205D01*
X51542Y-48624D01*
X50942Y-48624D02*
X51285Y-48624D01*
X51113Y-48624D02*
X51113Y-47824D01*
X51170Y-47938D01*
X51228Y-48014D01*
X51285Y-48052D01*
X50428Y-47824D02*
X50542Y-47824D01*
X50599Y-47862D01*
X50628Y-47900D01*
X50685Y-48014D01*
X50714Y-48167D01*
X50714Y-48471D01*
X50685Y-48548D01*
X50657Y-48586D01*
X50599Y-48624D01*
X50485Y-48624D01*
X50428Y-48586D01*
X50399Y-48548D01*
X50371Y-48471D01*
X50371Y-48281D01*
X50399Y-48205D01*
X50428Y-48167D01*
X50485Y-48129D01*
X50599Y-48129D01*
X50657Y-48167D01*
X50685Y-48205D01*
X50714Y-48281D01*
X50114Y-48624D02*
X50114Y-48090D01*
X50114Y-47824D02*
X50143Y-47862D01*
X50114Y-47900D01*
X50086Y-47862D01*
X50114Y-47824D01*
X50114Y-47900D01*
X49857Y-47900D02*
X49828Y-47862D01*
X49771Y-47824D01*
X49628Y-47824D01*
X49571Y-47862D01*
X49542Y-47900D01*
X49514Y-47976D01*
X49514Y-48052D01*
X49542Y-48167D01*
X49885Y-48624D01*
X49514Y-48624D01*
X49000Y-48586D02*
X49057Y-48624D01*
X49171Y-48624D01*
X49229Y-48586D01*
X49257Y-48548D01*
X49286Y-48471D01*
X49286Y-48243D01*
X49257Y-48167D01*
X49229Y-48129D01*
X49171Y-48090D01*
X49057Y-48090D01*
X49000Y-48129D01*
X66642Y-56824D02*
X66928Y-56824D01*
X66928Y-56024D01*
X66356Y-56824D02*
X66414Y-56786D01*
X66442Y-56748D01*
X66471Y-56671D01*
X66471Y-56443D01*
X66442Y-56367D01*
X66414Y-56329D01*
X66356Y-56290D01*
X66271Y-56290D01*
X66214Y-56329D01*
X66185Y-56367D01*
X66156Y-56443D01*
X66156Y-56671D01*
X66185Y-56748D01*
X66214Y-56786D01*
X66271Y-56824D01*
X66356Y-56824D01*
X65899Y-56290D02*
X65899Y-56824D01*
X65899Y-56367D02*
X65871Y-56329D01*
X65813Y-56290D01*
X65728Y-56290D01*
X65671Y-56329D01*
X65642Y-56405D01*
X65642Y-56824D01*
X65099Y-56290D02*
X65099Y-56938D01*
X65128Y-57014D01*
X65156Y-57052D01*
X65213Y-57090D01*
X65299Y-57090D01*
X65356Y-57052D01*
X65099Y-56786D02*
X65156Y-56824D01*
X65270Y-56824D01*
X65328Y-56786D01*
X65356Y-56748D01*
X65385Y-56671D01*
X65385Y-56443D01*
X65356Y-56367D01*
X65328Y-56329D01*
X65270Y-56290D01*
X65156Y-56290D01*
X65099Y-56329D01*
X64042Y-56824D02*
X64385Y-56824D01*
X64213Y-56824D02*
X64213Y-56024D01*
X64270Y-56138D01*
X64328Y-56214D01*
X64385Y-56252D01*
X63528Y-56024D02*
X63642Y-56024D01*
X63699Y-56062D01*
X63728Y-56100D01*
X63785Y-56214D01*
X63814Y-56367D01*
X63814Y-56671D01*
X63785Y-56748D01*
X63757Y-56786D01*
X63699Y-56824D01*
X63585Y-56824D01*
X63528Y-56786D01*
X63499Y-56748D01*
X63471Y-56671D01*
X63471Y-56481D01*
X63499Y-56405D01*
X63528Y-56367D01*
X63585Y-56329D01*
X63699Y-56329D01*
X63757Y-56367D01*
X63785Y-56405D01*
X63814Y-56481D01*
X62500Y-56824D02*
X62500Y-56024D01*
X62500Y-56786D02*
X62557Y-56824D01*
X62671Y-56824D01*
X62729Y-56786D01*
X62757Y-56748D01*
X62786Y-56671D01*
X62786Y-56443D01*
X62757Y-56367D01*
X62729Y-56329D01*
X62671Y-56290D01*
X62557Y-56290D01*
X62500Y-56329D01*
X62214Y-56824D02*
X62214Y-56290D01*
X62214Y-56024D02*
X62243Y-56062D01*
X62214Y-56100D01*
X62186Y-56062D01*
X62214Y-56024D01*
X62214Y-56100D01*
X61671Y-56290D02*
X61671Y-56938D01*
X61700Y-57014D01*
X61728Y-57052D01*
X61785Y-57090D01*
X61871Y-57090D01*
X61928Y-57052D01*
X61671Y-56786D02*
X61728Y-56824D01*
X61842Y-56824D01*
X61900Y-56786D01*
X61928Y-56748D01*
X61957Y-56671D01*
X61957Y-56443D01*
X61928Y-56367D01*
X61900Y-56329D01*
X61842Y-56290D01*
X61728Y-56290D01*
X61671Y-56329D01*
X61385Y-56824D02*
X61385Y-56290D01*
X61385Y-56024D02*
X61414Y-56062D01*
X61385Y-56100D01*
X61357Y-56062D01*
X61385Y-56024D01*
X61385Y-56100D01*
X61185Y-56290D02*
X60956Y-56290D01*
X61099Y-56024D02*
X61099Y-56710D01*
X61071Y-56786D01*
X61013Y-56824D01*
X60956Y-56824D01*
X60499Y-56824D02*
X60499Y-56405D01*
X60528Y-56329D01*
X60585Y-56290D01*
X60699Y-56290D01*
X60756Y-56329D01*
X60499Y-56786D02*
X60556Y-56824D01*
X60699Y-56824D01*
X60756Y-56786D01*
X60785Y-56710D01*
X60785Y-56633D01*
X60756Y-56557D01*
X60699Y-56519D01*
X60556Y-56519D01*
X60499Y-56481D01*
X60127Y-56824D02*
X60185Y-56786D01*
X60213Y-56710D01*
X60213Y-56024D01*
X59928Y-56786D02*
X59871Y-56824D01*
X59756Y-56824D01*
X59699Y-56786D01*
X59671Y-56710D01*
X59671Y-56671D01*
X59699Y-56595D01*
X59756Y-56557D01*
X59842Y-56557D01*
X59899Y-56519D01*
X59928Y-56443D01*
X59928Y-56405D01*
X59899Y-56329D01*
X59842Y-56290D01*
X59756Y-56290D01*
X59699Y-56329D01*
X58956Y-56824D02*
X58956Y-56290D01*
X58956Y-56024D02*
X58985Y-56062D01*
X58956Y-56100D01*
X58928Y-56062D01*
X58956Y-56024D01*
X58956Y-56100D01*
X58670Y-56290D02*
X58670Y-56824D01*
X58670Y-56367D02*
X58642Y-56329D01*
X58584Y-56290D01*
X58499Y-56290D01*
X58442Y-56329D01*
X58413Y-56405D01*
X58413Y-56824D01*
X58127Y-56290D02*
X58127Y-57090D01*
X58127Y-56329D02*
X58070Y-56290D01*
X57956Y-56290D01*
X57899Y-56329D01*
X57870Y-56367D01*
X57841Y-56443D01*
X57841Y-56671D01*
X57870Y-56748D01*
X57899Y-56786D01*
X57956Y-56824D01*
X58070Y-56824D01*
X58127Y-56786D01*
X57327Y-56290D02*
X57327Y-56824D01*
X57584Y-56290D02*
X57584Y-56710D01*
X57556Y-56786D01*
X57498Y-56824D01*
X57413Y-56824D01*
X57356Y-56786D01*
X57327Y-56748D01*
X57127Y-56290D02*
X56898Y-56290D01*
X57041Y-56024D02*
X57041Y-56710D01*
X57013Y-56786D01*
X56955Y-56824D01*
X56898Y-56824D01*
X56727Y-56786D02*
X56670Y-56824D01*
X56555Y-56824D01*
X56498Y-56786D01*
X56470Y-56710D01*
X56470Y-56671D01*
X56498Y-56595D01*
X56555Y-56557D01*
X56641Y-56557D01*
X56698Y-56519D01*
X56727Y-56443D01*
X56727Y-56405D01*
X56698Y-56329D01*
X56641Y-56290D01*
X56555Y-56290D01*
X56498Y-56329D01*
X55755Y-56824D02*
X55755Y-56024D01*
X55498Y-56100D02*
X55469Y-56062D01*
X55412Y-56024D01*
X55269Y-56024D01*
X55212Y-56062D01*
X55183Y-56100D01*
X55155Y-56176D01*
X55155Y-56252D01*
X55183Y-56367D01*
X55526Y-56824D01*
X55155Y-56824D01*
X54555Y-56748D02*
X54584Y-56786D01*
X54670Y-56824D01*
X54727Y-56824D01*
X54812Y-56786D01*
X54870Y-56710D01*
X54898Y-56633D01*
X54927Y-56481D01*
X54927Y-56367D01*
X54898Y-56214D01*
X54870Y-56138D01*
X54812Y-56062D01*
X54727Y-56024D01*
X54670Y-56024D01*
X54584Y-56062D01*
X54555Y-56100D01*
X53841Y-56824D02*
X53841Y-56024D01*
X53841Y-56329D02*
X53784Y-56290D01*
X53670Y-56290D01*
X53613Y-56329D01*
X53584Y-56367D01*
X53555Y-56443D01*
X53555Y-56671D01*
X53584Y-56748D01*
X53613Y-56786D01*
X53670Y-56824D01*
X53784Y-56824D01*
X53841Y-56786D01*
X53212Y-56824D02*
X53270Y-56786D01*
X53298Y-56748D01*
X53327Y-56671D01*
X53327Y-56443D01*
X53298Y-56367D01*
X53270Y-56329D01*
X53212Y-56290D01*
X53127Y-56290D01*
X53070Y-56329D01*
X53041Y-56367D01*
X53012Y-56443D01*
X53012Y-56671D01*
X53041Y-56748D01*
X53070Y-56786D01*
X53127Y-56824D01*
X53212Y-56824D01*
X52498Y-56824D02*
X52498Y-56405D01*
X52527Y-56329D01*
X52584Y-56290D01*
X52698Y-56290D01*
X52755Y-56329D01*
X52498Y-56786D02*
X52555Y-56824D01*
X52698Y-56824D01*
X52755Y-56786D01*
X52784Y-56710D01*
X52784Y-56633D01*
X52755Y-56557D01*
X52698Y-56519D01*
X52555Y-56519D01*
X52498Y-56481D01*
X52212Y-56824D02*
X52212Y-56290D01*
X52212Y-56443D02*
X52184Y-56367D01*
X52155Y-56329D01*
X52098Y-56290D01*
X52041Y-56290D01*
X51584Y-56824D02*
X51584Y-56024D01*
X51584Y-56786D02*
X51641Y-56824D01*
X51755Y-56824D01*
X51813Y-56786D01*
X51841Y-56748D01*
X51870Y-56671D01*
X51870Y-56443D01*
X51841Y-56367D01*
X51813Y-56329D01*
X51755Y-56290D01*
X51641Y-56290D01*
X51584Y-56329D01*
X50841Y-56519D02*
X50384Y-56519D01*
X49327Y-56824D02*
X49670Y-56824D01*
X49498Y-56824D02*
X49498Y-56024D01*
X49555Y-56138D01*
X49613Y-56214D01*
X49670Y-56252D01*
X49099Y-56100D02*
X49070Y-56062D01*
X49013Y-56024D01*
X48870Y-56024D01*
X48813Y-56062D01*
X48784Y-56100D01*
X48756Y-56176D01*
X48756Y-56252D01*
X48784Y-56367D01*
X49127Y-56824D01*
X48756Y-56824D01*
X48585Y-56024D02*
X48385Y-56824D01*
X48185Y-56024D01*
G54D12*
X57900Y-53850D02*
X57900Y-52950D01*
X57900Y-52950D02*
X58550Y-52950D01*
X59250Y-53850D02*
X59900Y-53850D01*
X59900Y-53850D02*
X59900Y-52950D01*
X59900Y-52950D02*
X59250Y-52950D01*
X58550Y-53850D02*
X57900Y-53850D01*
X54100Y-53850D02*
X54100Y-52950D01*
X54100Y-52950D02*
X54750Y-52950D01*
X55450Y-53850D02*
X56100Y-53850D01*
X56100Y-53850D02*
X56100Y-52950D01*
X56100Y-52950D02*
X55450Y-52950D01*
X54750Y-53850D02*
X54100Y-53850D01*
X50300Y-53850D02*
X50300Y-52950D01*
X50300Y-52950D02*
X50950Y-52950D01*
X51650Y-53850D02*
X52300Y-53850D01*
X52300Y-53850D02*
X52300Y-52950D01*
X52300Y-52950D02*
X51650Y-52950D01*
X50950Y-53850D02*
X50300Y-53850D01*
X46500Y-53850D02*
X46500Y-52950D01*
X46500Y-52950D02*
X47150Y-52950D01*
X47850Y-53850D02*
X48500Y-53850D01*
X48500Y-53850D02*
X48500Y-52950D01*
X48500Y-52950D02*
X47850Y-52950D01*
X47150Y-53850D02*
X46500Y-53850D01*
X42700Y-53850D02*
X42700Y-52950D01*
X42700Y-52950D02*
X43350Y-52950D01*
X44050Y-53850D02*
X44700Y-53850D01*
X44700Y-53850D02*
X44700Y-52950D01*
X44700Y-52950D02*
X44050Y-52950D01*
X43350Y-53850D02*
X42700Y-53850D01*
X38900Y-53850D02*
X38900Y-52950D01*
X38900Y-52950D02*
X39550Y-52950D01*
X40250Y-53850D02*
X40900Y-53850D01*
X40900Y-53850D02*
X40900Y-52950D01*
X40900Y-52950D02*
X40250Y-52950D01*
X39550Y-53850D02*
X38900Y-53850D01*
X35100Y-53850D02*
X35100Y-52950D01*
X35100Y-52950D02*
X35750Y-52950D01*
X36450Y-53850D02*
X37100Y-53850D01*
X37100Y-53850D02*
X37100Y-52950D01*
X37100Y-52950D02*
X36450Y-52950D01*
X35750Y-53850D02*
X35100Y-53850D01*
X31300Y-53850D02*
X31300Y-52950D01*
X31300Y-52950D02*
X31950Y-52950D01*
X32650Y-53850D02*
X33300Y-53850D01*
X33300Y-53850D02*
X33300Y-52950D01*
X33300Y-52950D02*
X32650Y-52950D01*
X31950Y-53850D02*
X31300Y-53850D01*
X88300Y-53850D02*
X88300Y-52950D01*
X88300Y-52950D02*
X88950Y-52950D01*
X89650Y-53850D02*
X90300Y-53850D01*
X90300Y-53850D02*
X90300Y-52950D01*
X90300Y-52950D02*
X89650Y-52950D01*
X88950Y-53850D02*
X88300Y-53850D01*
X84500Y-53850D02*
X84500Y-52950D01*
X84500Y-52950D02*
X85150Y-52950D01*
X85850Y-53850D02*
X86500Y-53850D01*
X86500Y-53850D02*
X86500Y-52950D01*
X86500Y-52950D02*
X85850Y-52950D01*
X85150Y-53850D02*
X84500Y-53850D01*
X80700Y-53850D02*
X80700Y-52950D01*
X80700Y-52950D02*
X81350Y-52950D01*
X82050Y-53850D02*
X82700Y-53850D01*
X82700Y-53850D02*
X82700Y-52950D01*
X82700Y-52950D02*
X82050Y-52950D01*
X81350Y-53850D02*
X80700Y-53850D01*
X76900Y-53850D02*
X76900Y-52950D01*
X76900Y-52950D02*
X77550Y-52950D01*
X78250Y-53850D02*
X78900Y-53850D01*
X78900Y-53850D02*
X78900Y-52950D01*
X78900Y-52950D02*
X78250Y-52950D01*
X77550Y-53850D02*
X76900Y-53850D01*
X73100Y-53850D02*
X73100Y-52950D01*
X73100Y-52950D02*
X73750Y-52950D01*
X74450Y-53850D02*
X75100Y-53850D01*
X75100Y-53850D02*
X75100Y-52950D01*
X75100Y-52950D02*
X74450Y-52950D01*
X73750Y-53850D02*
X73100Y-53850D01*
X69300Y-53850D02*
X69300Y-52950D01*
X69300Y-52950D02*
X69950Y-52950D01*
X70650Y-53850D02*
X71300Y-53850D01*
X71300Y-53850D02*
X71300Y-52950D01*
X71300Y-52950D02*
X70650Y-52950D01*
X69950Y-53850D02*
X69300Y-53850D01*
X65500Y-53850D02*
X65500Y-52950D01*
X65500Y-52950D02*
X66150Y-52950D01*
X66850Y-53850D02*
X67500Y-53850D01*
X67500Y-53850D02*
X67500Y-52950D01*
X67500Y-52950D02*
X66850Y-52950D01*
X66150Y-53850D02*
X65500Y-53850D01*
X61700Y-53850D02*
X61700Y-52950D01*
X61700Y-52950D02*
X62350Y-52950D01*
X63050Y-53850D02*
X63700Y-53850D01*
X63700Y-53850D02*
X63700Y-52950D01*
X63700Y-52950D02*
X63050Y-52950D01*
X62350Y-53850D02*
X61700Y-53850D01*
G54D13*
X54500Y-47000D02*
X52100Y-47000D01*
X52100Y-47000D02*
X51700Y-47200D01*
X51700Y-47200D02*
X50700Y-47200D01*
X50700Y-47200D02*
X50300Y-47000D01*
X54500Y-46800D02*
X52100Y-46800D01*
X52100Y-46800D02*
X51700Y-47000D01*
X51700Y-47000D02*
X50700Y-47000D01*
X50700Y-47000D02*
X50300Y-46800D01*
X50700Y-46800D02*
X50300Y-46600D01*
X51700Y-46800D02*
X50700Y-46800D01*
X52100Y-46600D02*
X51700Y-46800D01*
X54500Y-46600D02*
X52100Y-46600D01*
X54500Y-46600D02*
X52100Y-46600D01*
X52100Y-46600D02*
X51700Y-46800D01*
X51700Y-46800D02*
X50700Y-46800D01*
X50700Y-46800D02*
X50300Y-46600D01*
X50700Y-46800D02*
X50300Y-46600D01*
X51700Y-46800D02*
X50700Y-46800D01*
X52100Y-46600D02*
X51700Y-46800D01*
X54500Y-46600D02*
X52100Y-46600D01*
X54500Y-46600D02*
X52100Y-46600D01*
X52100Y-46600D02*
X51700Y-46800D01*
X51700Y-46800D02*
X50700Y-46800D01*
X50700Y-46800D02*
X50300Y-46600D01*
X50700Y-46800D02*
X50300Y-46600D01*
X51700Y-46800D02*
X50700Y-46800D01*
X52100Y-46600D02*
X51700Y-46800D01*
X54500Y-46600D02*
X52100Y-46600D01*
X54500Y-46600D02*
X52100Y-46600D01*
X52100Y-46600D02*
X51700Y-46800D01*
X51700Y-46800D02*
X50700Y-46800D01*
X50700Y-46800D02*
X50300Y-46600D01*
X50700Y-46800D02*
X50300Y-46600D01*
X51700Y-46800D02*
X50700Y-46800D01*
X52100Y-46600D02*
X51700Y-46800D01*
X54500Y-46600D02*
X52100Y-46600D01*
X54500Y-46600D02*
X52100Y-46600D01*
X52100Y-46600D02*
X51700Y-46800D01*
X51700Y-46800D02*
X50700Y-46800D01*
X50700Y-46800D02*
X50300Y-46600D01*
X50425Y-46300D02*
X50325Y-46225D01*
X50650Y-46200D02*
X50550Y-46300D01*
X51475Y-46300D02*
X51425Y-46300D01*
X51700Y-46300D02*
X51450Y-46300D01*
X51700Y-45700D02*
X51425Y-45700D01*
X51550Y-46275D02*
X51550Y-45750D01*
X50675Y-46100D02*
X50650Y-46200D01*
X50550Y-46300D02*
X50425Y-46300D01*
X50275Y-46075D02*
X50300Y-46200D01*
X50675Y-45875D02*
X50650Y-45775D01*
X50650Y-45775D02*
X50575Y-45700D01*
X50575Y-45700D02*
X50525Y-45675D01*
X50525Y-45675D02*
X50425Y-45675D01*
X50425Y-45675D02*
X50375Y-45700D01*
X50375Y-45700D02*
X50325Y-45725D01*
X50325Y-45725D02*
X50300Y-45775D01*
X50300Y-45775D02*
X50275Y-45850D01*
X50275Y-45850D02*
X50275Y-45900D01*
X50275Y-45900D02*
X50275Y-46075D01*
X50675Y-45900D02*
X50675Y-46100D01*
X51275Y-46300D02*
X51275Y-45675D01*
X51275Y-45700D02*
X50925Y-46300D01*
X50925Y-46300D02*
X50925Y-45675D01*
X52175Y-45700D02*
X52175Y-46175D01*
X52175Y-46175D02*
X52150Y-46225D01*
X52150Y-46225D02*
X52125Y-46250D01*
X52125Y-46250D02*
X52100Y-46275D01*
X52100Y-46275D02*
X52050Y-46300D01*
X52050Y-46300D02*
X52000Y-46300D01*
X52000Y-46300D02*
X51950Y-46300D01*
X51950Y-46300D02*
X51900Y-46275D01*
X51900Y-46275D02*
X51875Y-46250D01*
X51875Y-46250D02*
X51850Y-46225D01*
X51850Y-46225D02*
X51850Y-46175D01*
X51850Y-46175D02*
X51850Y-45700D01*
X52775Y-45700D02*
X52650Y-45700D01*
X52650Y-45700D02*
X52550Y-45725D01*
X52550Y-45725D02*
X52500Y-45775D01*
X52500Y-45775D02*
X52475Y-45850D01*
X52475Y-45850D02*
X52450Y-45950D01*
X52450Y-45950D02*
X52450Y-46025D01*
X52450Y-46025D02*
X52450Y-46075D01*
X52450Y-46075D02*
X52475Y-46150D01*
X52475Y-46150D02*
X52500Y-46200D01*
X52500Y-46200D02*
X52550Y-46250D01*
X52550Y-46250D02*
X52625Y-46300D01*
X52625Y-46300D02*
X52675Y-46300D01*
X52675Y-46300D02*
X52800Y-46300D01*
X52800Y-46300D02*
X52800Y-45700D01*
X53275Y-45700D02*
X53275Y-46300D01*
X53275Y-46300D02*
X53000Y-46300D01*
X53875Y-45700D02*
X53850Y-45700D01*
X53850Y-45700D02*
X53625Y-45700D01*
X53625Y-45700D02*
X53575Y-45725D01*
X53575Y-45725D02*
X53550Y-45750D01*
X53550Y-45750D02*
X53525Y-45800D01*
X53525Y-45800D02*
X53525Y-45850D01*
X53525Y-45850D02*
X53525Y-45900D01*
X53525Y-45900D02*
X53550Y-45950D01*
X53550Y-45950D02*
X53600Y-45975D01*
X53600Y-45975D02*
X53650Y-46000D01*
X53650Y-46000D02*
X53875Y-46000D01*
X53875Y-46275D02*
X53875Y-45700D01*
X54400Y-45900D02*
X54100Y-46300D01*
X54425Y-46300D02*
X54125Y-45900D01*
G54D12*
X57593Y-53521D02*
X57693Y-53379D01*
X57765Y-53521D02*
X57765Y-53221D01*
X57650Y-53221D01*
X57622Y-53236D01*
X57607Y-53250D01*
X57593Y-53279D01*
X57593Y-53321D01*
X57607Y-53350D01*
X57622Y-53364D01*
X57650Y-53379D01*
X57765Y-53379D01*
X57493Y-53221D02*
X57307Y-53221D01*
X57407Y-53336D01*
X57365Y-53336D01*
X57336Y-53350D01*
X57322Y-53364D01*
X57307Y-53393D01*
X57307Y-53464D01*
X57322Y-53493D01*
X57336Y-53507D01*
X57365Y-53521D01*
X57450Y-53521D01*
X57479Y-53507D01*
X57493Y-53493D01*
X57164Y-53521D02*
X57107Y-53521D01*
X57079Y-53507D01*
X57064Y-53493D01*
X57036Y-53450D01*
X57021Y-53393D01*
X57021Y-53279D01*
X57036Y-53250D01*
X57050Y-53236D01*
X57079Y-53221D01*
X57136Y-53221D01*
X57164Y-53236D01*
X57179Y-53250D01*
X57193Y-53279D01*
X57193Y-53350D01*
X57179Y-53379D01*
X57164Y-53393D01*
X57136Y-53407D01*
X57079Y-53407D01*
X57050Y-53393D01*
X57036Y-53379D01*
X57021Y-53350D01*
X53793Y-53521D02*
X53893Y-53379D01*
X53965Y-53521D02*
X53965Y-53221D01*
X53850Y-53221D01*
X53822Y-53236D01*
X53807Y-53250D01*
X53793Y-53279D01*
X53793Y-53321D01*
X53807Y-53350D01*
X53822Y-53364D01*
X53850Y-53379D01*
X53965Y-53379D01*
X53536Y-53321D02*
X53536Y-53521D01*
X53607Y-53207D02*
X53679Y-53421D01*
X53493Y-53421D01*
X53321Y-53221D02*
X53293Y-53221D01*
X53264Y-53236D01*
X53250Y-53250D01*
X53236Y-53279D01*
X53221Y-53336D01*
X53221Y-53407D01*
X53236Y-53464D01*
X53250Y-53493D01*
X53264Y-53507D01*
X53293Y-53521D01*
X53321Y-53521D01*
X53350Y-53507D01*
X53364Y-53493D01*
X53379Y-53464D01*
X53393Y-53407D01*
X53393Y-53336D01*
X53379Y-53279D01*
X53364Y-53250D01*
X53350Y-53236D01*
X53321Y-53221D01*
X49993Y-53521D02*
X50093Y-53379D01*
X50165Y-53521D02*
X50165Y-53221D01*
X50050Y-53221D01*
X50022Y-53236D01*
X50007Y-53250D01*
X49993Y-53279D01*
X49993Y-53321D01*
X50007Y-53350D01*
X50022Y-53364D01*
X50050Y-53379D01*
X50165Y-53379D01*
X49736Y-53321D02*
X49736Y-53521D01*
X49807Y-53207D02*
X49879Y-53421D01*
X49693Y-53421D01*
X49421Y-53521D02*
X49593Y-53521D01*
X49507Y-53521D02*
X49507Y-53221D01*
X49536Y-53264D01*
X49564Y-53293D01*
X49593Y-53307D01*
X46193Y-53521D02*
X46293Y-53379D01*
X46365Y-53521D02*
X46365Y-53221D01*
X46250Y-53221D01*
X46222Y-53236D01*
X46207Y-53250D01*
X46193Y-53279D01*
X46193Y-53321D01*
X46207Y-53350D01*
X46222Y-53364D01*
X46250Y-53379D01*
X46365Y-53379D01*
X45936Y-53321D02*
X45936Y-53521D01*
X46007Y-53207D02*
X46079Y-53421D01*
X45893Y-53421D01*
X45793Y-53250D02*
X45779Y-53236D01*
X45750Y-53221D01*
X45679Y-53221D01*
X45650Y-53236D01*
X45636Y-53250D01*
X45621Y-53279D01*
X45621Y-53307D01*
X45636Y-53350D01*
X45807Y-53521D01*
X45621Y-53521D01*
X42393Y-53521D02*
X42493Y-53379D01*
X42565Y-53521D02*
X42565Y-53221D01*
X42450Y-53221D01*
X42422Y-53236D01*
X42407Y-53250D01*
X42393Y-53279D01*
X42393Y-53321D01*
X42407Y-53350D01*
X42422Y-53364D01*
X42450Y-53379D01*
X42565Y-53379D01*
X42136Y-53321D02*
X42136Y-53521D01*
X42207Y-53207D02*
X42279Y-53421D01*
X42093Y-53421D01*
X42007Y-53221D02*
X41821Y-53221D01*
X41921Y-53336D01*
X41879Y-53336D01*
X41850Y-53350D01*
X41836Y-53364D01*
X41821Y-53393D01*
X41821Y-53464D01*
X41836Y-53493D01*
X41850Y-53507D01*
X41879Y-53521D01*
X41964Y-53521D01*
X41993Y-53507D01*
X42007Y-53493D01*
X38593Y-53521D02*
X38693Y-53379D01*
X38765Y-53521D02*
X38765Y-53221D01*
X38650Y-53221D01*
X38622Y-53236D01*
X38607Y-53250D01*
X38593Y-53279D01*
X38593Y-53321D01*
X38607Y-53350D01*
X38622Y-53364D01*
X38650Y-53379D01*
X38765Y-53379D01*
X38336Y-53321D02*
X38336Y-53521D01*
X38407Y-53207D02*
X38479Y-53421D01*
X38293Y-53421D01*
X38050Y-53321D02*
X38050Y-53521D01*
X38121Y-53207D02*
X38193Y-53421D01*
X38007Y-53421D01*
X34793Y-53521D02*
X34893Y-53379D01*
X34965Y-53521D02*
X34965Y-53221D01*
X34850Y-53221D01*
X34822Y-53236D01*
X34807Y-53250D01*
X34793Y-53279D01*
X34793Y-53321D01*
X34807Y-53350D01*
X34822Y-53364D01*
X34850Y-53379D01*
X34965Y-53379D01*
X34536Y-53321D02*
X34536Y-53521D01*
X34607Y-53207D02*
X34679Y-53421D01*
X34493Y-53421D01*
X34236Y-53221D02*
X34379Y-53221D01*
X34393Y-53364D01*
X34379Y-53350D01*
X34350Y-53336D01*
X34279Y-53336D01*
X34250Y-53350D01*
X34236Y-53364D01*
X34221Y-53393D01*
X34221Y-53464D01*
X34236Y-53493D01*
X34250Y-53507D01*
X34279Y-53521D01*
X34350Y-53521D01*
X34379Y-53507D01*
X34393Y-53493D01*
X30993Y-53521D02*
X31093Y-53379D01*
X31165Y-53521D02*
X31165Y-53221D01*
X31050Y-53221D01*
X31022Y-53236D01*
X31007Y-53250D01*
X30993Y-53279D01*
X30993Y-53321D01*
X31007Y-53350D01*
X31022Y-53364D01*
X31050Y-53379D01*
X31165Y-53379D01*
X30736Y-53321D02*
X30736Y-53521D01*
X30807Y-53207D02*
X30879Y-53421D01*
X30693Y-53421D01*
X30450Y-53221D02*
X30507Y-53221D01*
X30536Y-53236D01*
X30550Y-53250D01*
X30579Y-53293D01*
X30593Y-53350D01*
X30593Y-53464D01*
X30579Y-53493D01*
X30564Y-53507D01*
X30536Y-53521D01*
X30479Y-53521D01*
X30450Y-53507D01*
X30436Y-53493D01*
X30421Y-53464D01*
X30421Y-53393D01*
X30436Y-53364D01*
X30450Y-53350D01*
X30479Y-53336D01*
X30536Y-53336D01*
X30564Y-53350D01*
X30579Y-53364D01*
X30593Y-53393D01*
X87993Y-53521D02*
X88093Y-53379D01*
X88165Y-53521D02*
X88165Y-53221D01*
X88050Y-53221D01*
X88022Y-53236D01*
X88007Y-53250D01*
X87993Y-53279D01*
X87993Y-53321D01*
X88007Y-53350D01*
X88022Y-53364D01*
X88050Y-53379D01*
X88165Y-53379D01*
X87736Y-53321D02*
X87736Y-53521D01*
X87807Y-53207D02*
X87879Y-53421D01*
X87693Y-53421D01*
X87607Y-53221D02*
X87407Y-53221D01*
X87536Y-53521D01*
X84193Y-53521D02*
X84293Y-53379D01*
X84365Y-53521D02*
X84365Y-53221D01*
X84250Y-53221D01*
X84222Y-53236D01*
X84207Y-53250D01*
X84193Y-53279D01*
X84193Y-53321D01*
X84207Y-53350D01*
X84222Y-53364D01*
X84250Y-53379D01*
X84365Y-53379D01*
X83936Y-53321D02*
X83936Y-53521D01*
X84007Y-53207D02*
X84079Y-53421D01*
X83893Y-53421D01*
X83736Y-53350D02*
X83764Y-53336D01*
X83779Y-53321D01*
X83793Y-53293D01*
X83793Y-53279D01*
X83779Y-53250D01*
X83764Y-53236D01*
X83736Y-53221D01*
X83679Y-53221D01*
X83650Y-53236D01*
X83636Y-53250D01*
X83621Y-53279D01*
X83621Y-53293D01*
X83636Y-53321D01*
X83650Y-53336D01*
X83679Y-53350D01*
X83736Y-53350D01*
X83764Y-53364D01*
X83779Y-53379D01*
X83793Y-53407D01*
X83793Y-53464D01*
X83779Y-53493D01*
X83764Y-53507D01*
X83736Y-53521D01*
X83679Y-53521D01*
X83650Y-53507D01*
X83636Y-53493D01*
X83621Y-53464D01*
X83621Y-53407D01*
X83636Y-53379D01*
X83650Y-53364D01*
X83679Y-53350D01*
X80393Y-53521D02*
X80493Y-53379D01*
X80565Y-53521D02*
X80565Y-53221D01*
X80450Y-53221D01*
X80422Y-53236D01*
X80407Y-53250D01*
X80393Y-53279D01*
X80393Y-53321D01*
X80407Y-53350D01*
X80422Y-53364D01*
X80450Y-53379D01*
X80565Y-53379D01*
X80136Y-53321D02*
X80136Y-53521D01*
X80207Y-53207D02*
X80279Y-53421D01*
X80093Y-53421D01*
X79964Y-53521D02*
X79907Y-53521D01*
X79879Y-53507D01*
X79864Y-53493D01*
X79836Y-53450D01*
X79821Y-53393D01*
X79821Y-53279D01*
X79836Y-53250D01*
X79850Y-53236D01*
X79879Y-53221D01*
X79936Y-53221D01*
X79964Y-53236D01*
X79979Y-53250D01*
X79993Y-53279D01*
X79993Y-53350D01*
X79979Y-53379D01*
X79964Y-53393D01*
X79936Y-53407D01*
X79879Y-53407D01*
X79850Y-53393D01*
X79836Y-53379D01*
X79821Y-53350D01*
X76593Y-53521D02*
X76693Y-53379D01*
X76765Y-53521D02*
X76765Y-53221D01*
X76650Y-53221D01*
X76622Y-53236D01*
X76607Y-53250D01*
X76593Y-53279D01*
X76593Y-53321D01*
X76607Y-53350D01*
X76622Y-53364D01*
X76650Y-53379D01*
X76765Y-53379D01*
X76322Y-53221D02*
X76465Y-53221D01*
X76479Y-53364D01*
X76465Y-53350D01*
X76436Y-53336D01*
X76365Y-53336D01*
X76336Y-53350D01*
X76322Y-53364D01*
X76307Y-53393D01*
X76307Y-53464D01*
X76322Y-53493D01*
X76336Y-53507D01*
X76365Y-53521D01*
X76436Y-53521D01*
X76465Y-53507D01*
X76479Y-53493D01*
X76121Y-53221D02*
X76093Y-53221D01*
X76064Y-53236D01*
X76050Y-53250D01*
X76036Y-53279D01*
X76021Y-53336D01*
X76021Y-53407D01*
X76036Y-53464D01*
X76050Y-53493D01*
X76064Y-53507D01*
X76093Y-53521D01*
X76121Y-53521D01*
X76150Y-53507D01*
X76164Y-53493D01*
X76179Y-53464D01*
X76193Y-53407D01*
X76193Y-53336D01*
X76179Y-53279D01*
X76164Y-53250D01*
X76150Y-53236D01*
X76121Y-53221D01*
X72793Y-53521D02*
X72893Y-53379D01*
X72965Y-53521D02*
X72965Y-53221D01*
X72850Y-53221D01*
X72822Y-53236D01*
X72807Y-53250D01*
X72793Y-53279D01*
X72793Y-53321D01*
X72807Y-53350D01*
X72822Y-53364D01*
X72850Y-53379D01*
X72965Y-53379D01*
X72522Y-53221D02*
X72665Y-53221D01*
X72679Y-53364D01*
X72665Y-53350D01*
X72636Y-53336D01*
X72565Y-53336D01*
X72536Y-53350D01*
X72522Y-53364D01*
X72507Y-53393D01*
X72507Y-53464D01*
X72522Y-53493D01*
X72536Y-53507D01*
X72565Y-53521D01*
X72636Y-53521D01*
X72665Y-53507D01*
X72679Y-53493D01*
X72221Y-53521D02*
X72393Y-53521D01*
X72307Y-53521D02*
X72307Y-53221D01*
X72336Y-53264D01*
X72364Y-53293D01*
X72393Y-53307D01*
X68993Y-53521D02*
X69093Y-53379D01*
X69165Y-53521D02*
X69165Y-53221D01*
X69050Y-53221D01*
X69022Y-53236D01*
X69007Y-53250D01*
X68993Y-53279D01*
X68993Y-53321D01*
X69007Y-53350D01*
X69022Y-53364D01*
X69050Y-53379D01*
X69165Y-53379D01*
X68722Y-53221D02*
X68865Y-53221D01*
X68879Y-53364D01*
X68865Y-53350D01*
X68836Y-53336D01*
X68765Y-53336D01*
X68736Y-53350D01*
X68722Y-53364D01*
X68707Y-53393D01*
X68707Y-53464D01*
X68722Y-53493D01*
X68736Y-53507D01*
X68765Y-53521D01*
X68836Y-53521D01*
X68865Y-53507D01*
X68879Y-53493D01*
X68593Y-53250D02*
X68579Y-53236D01*
X68550Y-53221D01*
X68479Y-53221D01*
X68450Y-53236D01*
X68436Y-53250D01*
X68421Y-53279D01*
X68421Y-53307D01*
X68436Y-53350D01*
X68607Y-53521D01*
X68421Y-53521D01*
X65193Y-53521D02*
X65293Y-53379D01*
X65365Y-53521D02*
X65365Y-53221D01*
X65250Y-53221D01*
X65222Y-53236D01*
X65207Y-53250D01*
X65193Y-53279D01*
X65193Y-53321D01*
X65207Y-53350D01*
X65222Y-53364D01*
X65250Y-53379D01*
X65365Y-53379D01*
X64922Y-53221D02*
X65065Y-53221D01*
X65079Y-53364D01*
X65065Y-53350D01*
X65036Y-53336D01*
X64965Y-53336D01*
X64936Y-53350D01*
X64922Y-53364D01*
X64907Y-53393D01*
X64907Y-53464D01*
X64922Y-53493D01*
X64936Y-53507D01*
X64965Y-53521D01*
X65036Y-53521D01*
X65065Y-53507D01*
X65079Y-53493D01*
X64807Y-53221D02*
X64621Y-53221D01*
X64721Y-53336D01*
X64679Y-53336D01*
X64650Y-53350D01*
X64636Y-53364D01*
X64621Y-53393D01*
X64621Y-53464D01*
X64636Y-53493D01*
X64650Y-53507D01*
X64679Y-53521D01*
X64764Y-53521D01*
X64793Y-53507D01*
X64807Y-53493D01*
X61393Y-53521D02*
X61493Y-53379D01*
X61565Y-53521D02*
X61565Y-53221D01*
X61450Y-53221D01*
X61422Y-53236D01*
X61407Y-53250D01*
X61393Y-53279D01*
X61393Y-53321D01*
X61407Y-53350D01*
X61422Y-53364D01*
X61450Y-53379D01*
X61565Y-53379D01*
X61122Y-53221D02*
X61265Y-53221D01*
X61279Y-53364D01*
X61265Y-53350D01*
X61236Y-53336D01*
X61165Y-53336D01*
X61136Y-53350D01*
X61122Y-53364D01*
X61107Y-53393D01*
X61107Y-53464D01*
X61122Y-53493D01*
X61136Y-53507D01*
X61165Y-53521D01*
X61236Y-53521D01*
X61265Y-53507D01*
X61279Y-53493D01*
X60850Y-53321D02*
X60850Y-53521D01*
X60921Y-53207D02*
X60993Y-53421D01*
X60807Y-53421D01*
M02*
