M48
;DRILL file {Pcbnew (2012-01-19 BZR 3256)-stable} date jeu. 10 mai 2012 20:56:34 CEST
;FORMAT={-:-/ absolute / inch / decimal}
FMAT,2
INCH,TZ
T1C0.025
T2C0.040
T3C0.043
T4C0.047
T5C0.051
T6C0.120
%
G90
G05
M72
T1
X1.498Y0.927
X1.548Y1.177
X1.568Y1.097
X1.868Y1.067
X2.128Y0.967
X2.188Y1.167
X2.218Y1.107
X2.508Y1.067
X2.688Y1.027
X2.838Y1.167
X2.848Y1.107
X3.148Y1.067
X3.338Y1.027
X3.478Y1.167
X3.498Y1.107
X3.788Y1.067
X3.888Y1.117
X3.888Y1.167
X4.248Y1.577
X4.298Y2.017
X4.318Y1.047
X4.348Y2.137
X4.368Y1.047
X4.438Y1.047
X4.528Y2.207
X4.538Y2.017
X4.808Y1.037
X4.968Y1.107
X4.968Y1.217
X5.288Y1.067
X5.478Y1.027
X5.598Y1.167
X5.608Y1.107
X5.938Y1.067
X6.058Y1.027
X6.248Y1.167
X6.258Y1.107
X6.588Y1.067
X6.708Y1.027
X6.898Y1.107
X7.228Y1.067
T2
X4.078Y1.427
X4.088Y1.677
X4.088Y1.777
X4.088Y1.877
X4.178Y1.427
X4.188Y1.677
X4.188Y1.777
X4.188Y1.877
X4.278Y1.427
X4.378Y1.427
X4.508Y1.227
X4.508Y1.327
X4.508Y1.427
X4.508Y1.677
X4.508Y1.777
X4.508Y1.877
X4.608Y1.227
X4.608Y1.327
X4.608Y1.427
X4.608Y1.677
X4.608Y1.777
X4.608Y1.877
X4.708Y1.227
X4.708Y1.327
X4.708Y1.427
T3
X1.442Y1.341
X1.442Y1.822
X1.914Y1.341
X1.914Y1.822
X2.082Y1.341
X2.082Y1.822
X2.554Y1.341
X2.554Y1.822
X2.727Y1.341
X2.727Y1.822
X3.199Y1.341
X3.199Y1.822
X3.372Y1.341
X3.372Y1.822
X3.844Y1.341
X3.844Y1.822
X4.867Y1.341
X4.867Y1.822
X5.339Y1.341
X5.339Y1.822
X5.512Y1.341
X5.512Y1.822
X5.984Y1.341
X5.984Y1.822
X6.157Y1.341
X6.157Y1.822
X6.629Y1.341
X6.629Y1.822
X6.802Y1.341
X6.802Y1.822
X7.274Y1.341
X7.274Y1.822
T4
X1.458Y2.297
X1.658Y2.297
X1.858Y2.297
X2.088Y2.297
X2.288Y2.297
X2.488Y2.297
X2.718Y2.297
X2.918Y2.297
X3.118Y2.297
X3.538Y2.297
X3.738Y2.297
X3.938Y2.297
X4.758Y2.297
X4.958Y2.297
X5.158Y2.297
X5.598Y2.297
X5.798Y2.297
X5.998Y2.297
X6.228Y2.297
X6.428Y2.297
X6.628Y2.297
X6.858Y2.297
X7.058Y2.297
X7.258Y2.297
T5
X1.678Y1.263
X2.318Y1.263
X2.963Y1.263
X3.608Y1.263
X5.103Y1.263
X5.748Y1.263
X6.393Y1.263
X7.038Y1.263
T6
X3.328Y2.323
X5.378Y2.323
T0
M30
