M48
;DRILL file {Pcbnew (2011-12-21 BZR 3253)-stable} date 08/08/2012 23:38:25
;FORMAT={3:3/ absolute / metric / suppress leading zeros}
FMAT,2
METRIC,TZ
T1C0.635
T2C0.899
T3C1.001
T4C1.016
T5C1.321
T6C1.600
T7C3.251
%
G90
G05
M71
T1
X51001Y-122250
X57000Y-171501
X61501Y-149499
X62499Y-151501
X63251Y-165750
X63500Y-152751
X63500Y-155999
X64249Y-145999
X64750Y-171750
X65499Y-182499
X67000Y-149751
X67000Y-152250
X68001Y-144501
X68750Y-150251
X70500Y-155499
X70749Y-175750
X71001Y-152250
X71001Y-157249
X71250Y-101501
X72250Y-150000
X72751Y-106251
X73251Y-175499
X73749Y-130000
X74000Y-110251
X74252Y-149751
X74750Y-156251
X76751Y-125750
X77500Y-140749
X79251Y-129499
X79251Y-155750
X80249Y-177749
X81001Y-124750
X82250Y-155999
X82751Y-117749
X84501Y-121001
X86251Y-156500
X87000Y-165750
X87749Y-127249
X88001Y-108501
X88001Y-162499
X88999Y-165499
X89251Y-153251
X90249Y-132250
X90249Y-162250
X90500Y-121501
X91250Y-158250
X91250Y-160251
X91501Y-162250
X91999Y-108501
X93251Y-157000
X93749Y-132751
X93749Y-134000
X95001Y-158250
T2
X85601Y-115100
X86799Y-112550
X88100Y-115100
X89400Y-112550
X90599Y-115100
X91900Y-112550
X93200Y-115100
X94399Y-112550
T3
X83350Y-102199
X85900Y-102199
X94099Y-102199
X96650Y-102199
T4
X54729Y-123711
X54729Y-126251
X54729Y-128791
X55979Y-162999
X57269Y-123711
X57269Y-126251
X57269Y-128791
X58461Y-177480
X58461Y-180020
X58519Y-162999
X60211Y-139979
X60211Y-142519
X61001Y-177480
X61001Y-180020
X62751Y-139979
X62751Y-142519
X63401Y-162999
X63541Y-177480
X63541Y-180020
X65291Y-139979
X65291Y-142519
X65941Y-162999
X68481Y-162999
X69169Y-167480
X69169Y-170020
X71021Y-162999
X71709Y-167480
X71709Y-170020
X73561Y-162999
X74249Y-167480
X74249Y-170020
X76101Y-162999
X76789Y-167480
X76789Y-170020
X79329Y-167480
X79329Y-170020
X95481Y-142921
X95481Y-145461
X95481Y-148001
X95481Y-150541
X95481Y-153081
X98021Y-142921
X98021Y-145461
X98021Y-148001
X98021Y-150541
X98021Y-153081
T5
X54760Y-107749
X59764Y-107749
T6
X82250Y-109200
X97650Y-109200
T7
X84300Y-106248
X95700Y-106200
T0
M30
